<svg width="1145" height="1145" viewBox="0 0 1145 1145" fill="none" xmlns="http://www.w3.org/2000/svg">
<rect x="20.5" y="20.5" width="1103.65" height="1103.65" rx="551.824" fill="white" stroke="#220940" stroke-width="41"/>
<path d="M834.868 903.647C788.756 786.344 750.327 726.003 657.391 644.91C649.709 638.207 638.472 637.513 629.949 643.107L622.663 647.889C614.14 653.483 610.307 664.07 613.401 673.784C650.831 791.309 690.906 850.57 780.185 939.539C815.613 974.845 853.069 949.951 834.868 903.647Z" fill="#220940"/>
<path d="M995.112 514.337C870.469 495.619 798.997 498.729 682.301 538.667C672.655 541.968 666.435 551.353 667.018 561.531L667.517 570.232C668.1 580.41 675.351 589.023 685.311 591.201C805.806 617.547 877.165 612.472 998.854 579.639C1047.14 566.61 1044.31 521.725 995.112 514.337Z" fill="#220940"/>
<path d="M739.022 180.626C660.491 279.211 627.448 342.662 603.688 463.694C601.724 473.698 606.741 483.777 615.847 488.361L623.632 492.28C632.738 496.864 643.822 494.89 650.688 487.354C733.753 396.175 765.037 331.839 797.447 210.037C810.308 161.702 770.021 141.711 739.022 180.626Z" fill="#220940"/>
<path d="M317.358 240.591C363.47 357.894 401.899 418.235 494.835 499.328C502.516 506.031 513.754 506.725 522.277 501.131L529.563 496.349C538.085 490.755 541.919 480.169 538.825 470.455C501.394 352.929 461.32 293.668 372.041 204.699C336.613 169.394 299.156 194.288 317.358 240.591Z" fill="#220940"/>
<path d="M317.779 240.997C363.891 358.3 402.319 418.641 495.256 499.734C502.937 506.437 514.175 507.131 522.698 501.537L529.983 496.755C538.506 491.161 542.339 480.575 539.246 470.861C501.815 353.336 461.741 294.074 372.462 205.105C337.033 169.8 299.577 194.694 317.779 240.997Z" fill="#220940"/>
<path d="M157.534 630.308C282.178 649.026 353.649 645.916 470.346 605.977C479.991 602.676 486.211 593.291 485.628 583.113L485.13 574.413C484.546 564.235 477.295 555.622 467.336 553.444C346.841 527.097 275.482 532.172 153.792 565.005C105.503 578.034 108.334 622.92 157.534 630.308Z" fill="#220940"/>
<path d="M413.624 964.019C492.156 865.433 525.198 801.982 548.959 680.95C550.923 670.947 545.905 660.867 536.799 656.284L529.015 652.365C519.909 647.781 508.824 649.754 501.958 657.291C418.894 748.469 387.61 812.805 355.199 934.608C342.338 982.942 382.625 1002.93 413.624 964.019Z" fill="#220940"/>
<path d="M835.288 904.054C789.177 786.751 750.748 726.409 657.812 645.316C650.13 638.613 638.893 637.919 630.37 643.513L623.084 648.295C614.561 653.889 610.728 664.476 613.822 674.19C651.252 791.715 691.327 850.976 780.606 939.946C816.034 975.251 853.49 950.357 835.288 904.054Z" fill="#220940"/>
<path d="M641.201 558.296C641.201 538.526 625.174 522.5 605.408 522.5C593.408 522.5 582.82 528.424 576.323 537.478C569.826 528.424 559.238 522.5 547.241 522.5C527.472 522.5 511.445 538.523 511.445 558.296C511.445 561.097 511.801 563.81 512.41 566.425C517.38 597.306 551.714 629.885 576.323 638.83C600.928 629.885 635.266 597.306 640.229 566.429C640.845 563.814 641.201 561.1 641.201 558.296Z" fill="#220940"/>
</svg>
