<svg width="1063" height="1063" viewBox="0 0 1063 1063" fill="none" xmlns="http://www.w3.org/2000/svg">
<rect width="1062.65" height="1062.65" rx="531.324" fill="#D5ADFF"/>
<path d="M793.867 862.644C747.755 745.341 709.326 684.999 616.39 603.906C608.708 597.204 597.471 596.509 588.948 602.103L581.662 606.885C573.139 612.48 569.306 623.066 572.4 632.78C609.83 750.305 649.905 809.566 739.184 898.536C774.612 933.841 812.068 908.947 793.867 862.644Z" fill="#5C18A4"/>
<path d="M954.111 473.333C829.468 454.615 757.996 457.725 641.3 497.663C631.654 500.964 625.434 510.349 626.017 520.527L626.516 529.228C627.099 539.406 634.351 548.019 644.31 550.197C764.805 576.544 836.164 571.468 957.853 538.635C1006.14 525.606 1003.31 480.721 954.111 473.333Z" fill="#5C18A4"/>
<path d="M698.021 139.622C619.49 238.208 586.447 301.659 562.687 422.69C560.723 432.694 565.74 442.773 574.846 447.357L582.631 451.276C591.737 455.86 602.821 453.886 609.687 446.35C692.752 355.172 724.036 290.835 756.446 169.033C769.307 120.698 729.02 100.707 698.021 139.622Z" fill="#5C18A4"/>
<path d="M276.357 199.587C322.469 316.89 360.898 377.232 453.834 458.325C461.515 465.027 472.753 465.721 481.276 460.127L488.562 455.345C497.084 449.751 500.918 439.165 497.824 429.451C460.393 311.926 420.319 252.664 331.04 163.695C295.612 128.39 258.155 153.284 276.357 199.587Z" fill="#5C18A4"/>
<path d="M276.78 199.993C322.892 317.296 361.32 377.638 454.257 458.73C461.938 465.433 473.176 466.128 481.698 460.533L488.984 455.751C497.507 450.157 501.34 439.571 498.247 429.857C460.816 312.332 420.742 253.07 331.463 164.101C296.034 128.796 258.578 153.69 276.78 199.993Z" fill="#5C18A4"/>
<path d="M116.535 589.304C241.179 608.022 312.65 604.912 429.347 564.973C438.992 561.672 445.212 552.287 444.629 542.109L444.131 533.409C443.547 523.231 436.296 514.618 426.337 512.44C305.842 486.093 234.482 491.168 112.793 524.001C64.5041 537.031 67.3347 581.916 116.535 589.304Z" fill="#5C18A4"/>
<path d="M372.625 923.015C451.157 824.429 484.199 760.978 507.96 639.946C509.924 629.943 504.906 619.864 495.8 615.28L488.016 611.361C478.91 606.777 467.825 608.751 460.959 616.287C377.895 707.465 346.611 771.801 314.2 893.604C301.339 941.938 341.626 961.929 372.625 923.015Z" fill="#5C18A4"/>
<path d="M794.289 863.05C748.178 745.747 709.749 685.405 616.813 604.312C609.131 597.61 597.894 596.915 589.371 602.509L582.085 607.291C573.562 612.886 569.729 623.472 572.823 633.186C610.253 750.711 650.328 809.972 739.607 898.942C775.035 934.247 812.491 909.353 794.289 863.05Z" fill="#5C18A4"/>
<path d="M600.201 517.296C600.201 497.526 584.174 481.5 564.408 481.5C552.408 481.5 541.82 487.424 535.323 496.478C528.826 487.424 518.238 481.5 506.241 481.5C486.472 481.5 470.445 497.523 470.445 517.296C470.445 520.097 470.801 522.81 471.41 525.425C476.38 556.306 510.714 588.885 535.323 597.83C559.928 588.885 594.266 556.306 599.229 525.429C599.845 522.814 600.201 520.1 600.201 517.296Z" fill="#5C18A4"/>
</svg>
