<svg width="1063" height="1063" viewBox="0 0 1063 1063" fill="none" xmlns="http://www.w3.org/2000/svg">
<rect width="1062.65" height="1062.65" rx="531.324" fill="#220940"/>
<path d="M793.867 862.647C747.755 745.344 709.326 685.003 616.39 603.91C608.708 597.207 597.471 596.513 588.948 602.107L581.662 606.889C573.139 612.483 569.306 623.07 572.4 632.784C609.83 750.309 649.905 809.57 739.184 898.539C774.612 933.845 812.068 908.951 793.867 862.647Z" fill="#D5ADFF"/>
<path d="M954.111 473.337C829.468 454.619 757.996 457.729 641.3 497.667C631.654 500.968 625.434 510.353 626.017 520.531L626.516 529.232C627.099 539.41 634.351 548.023 644.31 550.201C764.805 576.547 836.164 571.472 957.853 538.639C1006.14 525.61 1003.31 480.725 954.111 473.337Z" fill="#D5ADFF"/>
<path d="M698.021 139.626C619.49 238.211 586.447 301.662 562.687 422.694C560.723 432.698 565.74 442.777 574.846 447.361L582.631 451.28C591.737 455.864 602.821 453.89 609.687 446.354C692.752 355.175 724.036 290.839 756.446 169.037C769.307 120.702 729.02 100.711 698.021 139.626Z" fill="#D5ADFF"/>
<path d="M276.357 199.591C322.469 316.894 360.898 377.235 453.834 458.328C461.515 465.031 472.753 465.725 481.276 460.131L488.562 455.349C497.084 449.755 500.918 439.169 497.824 429.455C460.393 311.929 420.319 252.668 331.04 163.699C295.612 128.394 258.155 153.288 276.357 199.591Z" fill="#D5ADFF"/>
<path d="M276.78 200.001C322.892 317.304 361.32 377.645 454.257 458.738C461.938 465.441 473.176 466.135 481.698 460.541L488.984 455.759C497.507 450.165 501.34 439.579 498.247 429.865C460.816 312.339 420.742 253.078 331.463 164.109C296.034 128.804 258.578 153.698 276.78 200.001Z" fill="#D5ADFF"/>
<path d="M116.535 589.312C241.179 608.029 312.65 604.92 429.347 564.981C438.992 561.68 445.212 552.295 444.629 542.117L444.131 533.416C443.547 523.238 436.296 514.625 426.337 512.448C305.842 486.101 234.482 491.176 112.793 524.009C64.5041 537.038 67.3347 581.923 116.535 589.312Z" fill="#D5ADFF"/>
<path d="M372.625 923.022C451.157 824.437 484.199 760.986 507.96 639.954C509.924 629.951 504.906 619.871 495.8 615.287L488.016 611.369C478.91 606.785 467.825 608.758 460.959 616.295C377.895 707.473 346.611 771.809 314.2 893.612C301.339 941.946 341.626 961.937 372.625 923.022Z" fill="#D5ADFF"/>
<path d="M794.289 863.057C748.178 745.754 709.749 685.413 616.813 604.32C609.131 597.617 597.894 596.923 589.371 602.517L582.085 607.299C573.562 612.893 569.729 623.48 572.823 633.194C610.253 750.719 650.328 809.98 739.607 898.949C775.035 934.255 812.491 909.361 794.289 863.057Z" fill="#D5ADFF"/>
<path d="M600.201 517.296C600.201 497.526 584.174 481.5 564.408 481.5C552.408 481.5 541.82 487.424 535.323 496.478C528.826 487.424 518.238 481.5 506.241 481.5C486.472 481.5 470.445 497.523 470.445 517.296C470.445 520.097 470.801 522.81 471.41 525.425C476.38 556.306 510.714 588.885 535.323 597.83C559.928 588.885 594.266 556.306 599.229 525.429C599.845 522.814 600.201 520.1 600.201 517.296Z" fill="#D5ADFF"/>
</svg>
