<svg width="1145" height="1145" viewBox="0 0 1145 1145" fill="none" xmlns="http://www.w3.org/2000/svg">
<rect x="20.5" y="20.5" width="1103.65" height="1103.65" rx="551.824" fill="white" stroke="#220940" stroke-width="41"/>
<path d="M480.995 340.525C531.435 290.085 613.214 290.085 663.653 340.525L823.92 500.793C848.142 525.014 861.75 557.866 861.75 592.121V684.562C861.75 755.894 803.924 813.72 732.592 813.72H412.057C340.725 813.72 282.898 755.894 282.898 684.562V592.121C282.899 557.866 296.507 525.014 320.729 500.793L480.995 340.525ZM722.776 531.464C703.563 531.464 686.609 540.949 676.206 555.447C665.803 540.949 648.849 531.464 629.641 531.464C597.986 531.465 572.325 557.119 572.325 588.78C572.325 593.264 572.894 597.609 573.87 601.796C581.827 651.242 636.803 703.406 676.206 717.729C715.603 703.406 770.584 651.242 778.529 601.802C779.517 597.615 780.086 593.27 780.086 588.78C780.086 557.125 754.425 531.464 722.776 531.464Z" fill="#220940"/>
</svg>
