<svg width="1063" height="1063" viewBox="0 0 1063 1063" fill="none" xmlns="http://www.w3.org/2000/svg">
<rect width="1062.65" height="1062.65" rx="531.324" fill="#220940"/>
<path d="M439.995 299.525C490.435 249.085 572.214 249.085 622.653 299.525L782.92 459.792C807.142 484.014 820.75 516.867 820.75 551.122V643.562C820.75 714.894 762.924 772.721 691.592 772.721H371.057C299.725 772.721 241.899 714.895 241.898 643.563V551.122C241.898 516.867 255.507 484.014 279.729 459.792L439.995 299.525ZM681.776 490.465C662.563 490.465 645.609 499.95 635.206 514.447C624.803 499.949 607.848 490.465 588.641 490.465C556.986 490.466 531.325 516.12 531.325 547.781C531.325 552.265 531.894 556.61 532.87 560.797C540.828 610.243 595.803 662.407 635.206 676.73C674.603 662.407 729.583 610.243 737.529 560.803C738.517 556.615 739.086 552.27 739.086 547.781C739.086 516.126 713.426 490.465 681.776 490.465Z" fill="#D5ADFF"/>
</svg>
