<svg width="1063" height="1063" viewBox="0 0 1063 1063" fill="none" xmlns="http://www.w3.org/2000/svg">
<rect width="1062.65" height="1062.65" rx="531.324" fill="#D5ADFF"/>
<path d="M439.994 299.525C490.434 249.085 572.213 249.085 622.652 299.525L782.919 459.792C807.141 484.013 820.749 516.866 820.749 551.121V643.562C820.749 714.894 762.923 772.72 691.591 772.72H371.056C299.724 772.72 241.897 714.894 241.897 643.562V551.121C241.898 516.866 255.506 484.013 279.728 459.792L439.994 299.525ZM681.775 490.464C662.562 490.464 645.608 499.949 635.205 514.447C624.802 499.949 607.848 490.464 588.64 490.464C556.985 490.465 531.324 516.119 531.324 547.78C531.324 552.264 531.893 556.609 532.869 560.796C540.826 610.242 595.802 662.406 635.205 676.729C674.602 662.406 729.583 610.242 737.528 560.802C738.516 556.615 739.085 552.27 739.085 547.78C739.085 516.125 713.424 490.464 681.775 490.464Z" fill="#5C18A4"/>
</svg>
