<svg width="1063" height="1063" viewBox="0 0 1063 1063" fill="none" xmlns="http://www.w3.org/2000/svg">
<rect width="1062.65" height="1062.65" rx="531.324" fill="#220940"/>
<rect x="88.0996" y="360.578" width="171.996" height="388.267" rx="38.3772" fill="#D5ADFF"/>
<path d="M329.51 608.24C344.497 593.253 368.796 593.253 383.783 608.24L431.404 655.861C438.601 663.058 442.645 672.82 442.645 682.998V710.465C442.645 731.66 425.463 748.843 404.268 748.843H309.026C287.831 748.843 270.648 731.66 270.648 710.465V682.998C270.648 672.82 274.693 663.058 281.89 655.861L329.51 608.24ZM401.35 664.976C395.641 664.976 390.604 667.794 387.513 672.102C384.422 667.794 379.384 664.976 373.677 664.976C364.271 664.976 356.646 672.598 356.646 682.006C356.647 683.338 356.816 684.629 357.105 685.873C359.47 700.565 375.805 716.064 387.513 720.32C399.219 716.064 415.555 700.565 417.916 685.875C418.209 684.631 418.379 683.34 418.379 682.006C418.379 672.6 410.754 664.976 401.35 664.976Z" fill="#D5ADFF"/>
<path d="M526.299 360.236L465.678 517.46C462.077 526.799 468.97 536.843 478.978 536.843C489.014 536.843 495.907 546.938 492.254 556.285L463.427 630.052C458.509 642.635 467.789 656.225 481.299 656.225H495.507C506.104 656.225 514.695 664.816 514.695 675.413V729.655C514.695 740.252 523.286 748.843 533.884 748.843H554.521C565.119 748.843 573.71 740.252 573.71 729.655V675.413C573.71 664.816 582.301 656.225 592.898 656.225L607.106 656.225C620.616 656.225 629.896 642.635 624.978 630.052L596.151 556.285C592.498 546.938 599.391 536.843 609.427 536.843C619.436 536.843 626.328 526.799 622.727 517.46L562.106 360.236C555.791 343.855 532.615 343.855 526.299 360.236Z" fill="#D5ADFF"/>
<rect x="645.761" y="514.207" width="171.996" height="234.637" rx="38.3772" fill="#D5ADFF"/>
<path d="M935.698 683.079C914.235 628.479 896.348 600.392 853.09 562.646C849.514 559.526 844.283 559.203 840.316 561.807L836.925 564.033C832.958 566.637 831.174 571.564 832.614 576.086C850.036 630.789 868.69 658.373 910.245 699.785C926.736 716.218 944.17 704.631 935.698 683.079Z" fill="#D5ADFF"/>
<path d="M1010.29 501.869C952.269 493.157 919.002 494.604 864.684 513.194C860.194 514.731 857.299 519.099 857.571 523.836L857.803 527.886C858.074 532.624 861.45 536.633 866.085 537.646C922.171 549.91 955.386 547.548 1012.03 532.265C1034.5 526.2 1033.19 505.308 1010.29 501.869Z" fill="#D5ADFF"/>
<path d="M891.086 346.54C854.532 392.427 839.152 421.961 828.093 478.297C827.179 482.953 829.514 487.645 833.753 489.779L837.376 491.603C841.614 493.736 846.774 492.818 849.97 489.31C888.633 446.87 903.195 416.924 918.28 360.229C924.267 337.731 905.515 328.426 891.086 346.54Z" fill="#D5ADFF"/>
<path d="M694.817 374.451C716.28 429.051 734.168 457.138 777.426 494.883C781.001 498.003 786.232 498.326 790.199 495.723L793.59 493.497C797.557 490.893 799.342 485.965 797.902 481.444C780.479 426.74 761.826 399.157 720.27 357.745C703.779 341.311 686.345 352.899 694.817 374.451Z" fill="#D5ADFF"/>
</svg>
