<svg width="1145" height="1145" viewBox="0 0 1145 1145" fill="none" xmlns="http://www.w3.org/2000/svg">
<rect x="20.5" y="20.5" width="1103.65" height="1103.65" rx="551.824" fill="white" stroke="#220940" stroke-width="41"/>
<rect x="129.1" y="401.578" width="171.996" height="388.267" rx="38.3772" fill="#220940"/>
<path d="M370.51 649.24C385.497 634.253 409.796 634.253 424.783 649.24L472.404 696.861C479.601 704.058 483.645 713.82 483.645 723.998V751.465C483.645 772.66 466.463 789.843 445.268 789.843H350.026C328.831 789.843 311.648 772.66 311.648 751.465V723.998C311.648 713.82 315.693 704.058 322.89 696.861L370.51 649.24ZM442.35 705.976C436.641 705.976 431.604 708.794 428.513 713.102C425.422 708.794 420.384 705.976 414.677 705.976C405.271 705.976 397.646 713.598 397.646 723.006C397.647 724.338 397.816 725.629 398.105 726.873C400.47 741.565 416.805 757.064 428.513 761.32C440.219 757.064 456.555 741.565 458.916 726.875C459.209 725.631 459.379 724.34 459.379 723.006C459.379 713.6 451.754 705.976 442.35 705.976Z" fill="#220940"/>
<path d="M567.3 401.236L506.679 558.46C503.078 567.799 509.97 577.843 519.979 577.843C530.015 577.843 536.908 587.938 533.255 597.285L504.428 671.052C499.51 683.635 508.79 697.225 522.3 697.225H536.508C547.105 697.225 555.696 705.816 555.696 716.413V770.655C555.696 781.252 564.287 789.843 574.885 789.843H595.522C606.12 789.843 614.711 781.252 614.711 770.655V716.413C614.711 705.816 623.302 697.225 633.899 697.225L648.107 697.225C661.617 697.225 670.897 683.635 665.979 671.052L637.152 597.285C633.499 587.938 640.392 577.843 650.428 577.843C660.437 577.843 667.329 567.799 663.728 558.46L603.107 401.236C596.792 384.855 573.616 384.855 567.3 401.236Z" fill="#220940"/>
<rect x="686.762" y="555.207" width="171.996" height="234.637" rx="38.3772" fill="#220940"/>
<path d="M976.699 724.079C955.236 669.479 937.349 641.392 894.091 603.646C890.515 600.526 885.284 600.203 881.317 602.807L877.926 605.033C873.959 607.637 872.175 612.564 873.615 617.086C891.037 671.789 909.69 699.373 951.246 740.785C967.737 757.218 985.171 745.631 976.699 724.079Z" fill="#220940"/>
<path d="M1051.29 542.869C993.27 534.157 960.003 535.604 905.685 554.194C901.195 555.731 898.3 560.099 898.572 564.836L898.804 568.886C899.075 573.624 902.451 577.633 907.086 578.646C963.172 590.91 996.387 588.548 1053.03 573.265C1075.51 567.2 1074.19 546.308 1051.29 542.869Z" fill="#220940"/>
<path d="M932.087 387.54C895.533 433.427 880.153 462.961 869.094 519.297C868.18 523.953 870.515 528.645 874.754 530.779L878.377 532.603C882.615 534.736 887.775 533.818 890.971 530.31C929.634 487.87 944.196 457.924 959.281 401.229C965.268 378.731 946.516 369.426 932.087 387.54Z" fill="#220940"/>
<path d="M735.818 415.451C757.281 470.051 775.169 498.138 818.427 535.883C822.002 539.003 827.233 539.326 831.2 536.723L834.591 534.497C838.558 531.893 840.343 526.965 838.903 522.444C821.48 467.74 802.827 440.157 761.271 398.745C744.78 382.311 727.346 393.899 735.818 415.451Z" fill="#220940"/>
</svg>
