<svg viewBox="10 35 2000 890" fill="none" xmlns="http://www.w3.org/2000/svg" role="img" aria-label="Livable CRD">
<rect x="26" y="97.5078" width="358.537" height="809.371" rx="80" fill="#5C18A4"/>
<path d="M529.237 613.783C560.479 582.541 611.133 582.541 642.375 613.783L741.644 713.052C756.646 728.054 765.074 748.403 765.074 769.62V826.878C765.074 871.061 729.257 906.878 685.074 906.878H486.537C442.354 906.878 406.537 871.06 406.537 826.878V769.62C406.537 748.403 414.966 728.054 429.969 713.052L529.237 613.783ZM678.993 732.047C667.093 732.047 656.592 737.922 650.148 746.901C643.705 737.922 633.203 732.047 621.306 732.047C601.699 732.047 585.805 747.937 585.805 767.548C585.805 770.325 586.157 773.016 586.762 775.61C591.691 806.236 625.742 838.546 650.148 847.418C674.551 838.546 708.606 806.236 713.527 775.613C714.139 773.019 714.491 770.328 714.491 767.548C714.491 747.941 698.596 732.047 678.993 732.047Z" fill="#5C18A4"/>
<path d="M939.457 96.7972L813.089 424.543C805.584 444.009 819.951 464.947 840.814 464.947C861.734 464.947 876.104 485.991 868.489 505.476L808.396 659.248C798.145 685.479 817.489 713.808 845.652 713.808H875.269C897.361 713.808 915.269 731.716 915.269 753.808V866.878C915.269 888.969 933.178 906.878 955.269 906.878H998.289C1020.38 906.878 1038.29 888.969 1038.29 866.878V753.808C1038.29 731.716 1056.2 713.808 1078.29 713.808L1107.91 713.808C1136.07 713.808 1155.41 685.479 1145.16 659.248L1085.07 505.477C1077.45 485.991 1091.82 464.947 1112.74 464.947C1133.61 464.947 1147.98 444.009 1140.47 424.543L1014.1 96.7972C1000.94 62.6507 952.623 62.6507 939.457 96.7972Z" fill="#5C18A4"/>
<rect x="1188.48" y="417.762" width="358.537" height="489.117" rx="80" fill="#5C18A4"/>
<path d="M1792.88 769.793C1748.14 655.975 1710.85 597.426 1620.68 518.742C1613.22 512.239 1602.32 511.565 1594.05 516.993L1586.98 521.633C1578.71 527.061 1574.99 537.333 1577.99 546.758C1614.31 660.792 1653.2 718.292 1739.82 804.618C1774.2 838.874 1810.54 814.72 1792.88 769.793Z" fill="#D5ADFF"/>
<path d="M1948.36 392.048C1827.42 373.887 1758.08 376.904 1644.85 415.656C1635.49 418.859 1629.45 427.965 1630.02 437.841L1630.5 446.283C1631.07 456.159 1638.1 464.516 1647.77 466.629C1764.68 492.193 1833.92 487.268 1952 455.411C1998.85 442.769 1996.1 399.217 1948.36 392.048Z" fill="#D5ADFF"/>
<path d="M1699.88 68.2526C1623.69 163.909 1591.62 225.475 1568.57 342.911C1566.66 352.617 1571.53 362.397 1580.37 366.845L1587.92 370.647C1596.76 375.094 1607.51 373.18 1614.17 365.867C1694.77 277.398 1725.13 214.973 1756.57 96.7895C1769.05 49.8912 1729.96 30.4939 1699.88 68.2526Z" fill="#D5ADFF"/>
<path d="M1290.75 126.436C1335.49 240.254 1372.78 298.803 1462.95 377.486C1470.4 383.99 1481.31 384.663 1489.58 379.235L1496.65 374.595C1504.92 369.167 1508.64 358.896 1505.63 349.47C1469.32 235.437 1430.43 177.936 1343.81 91.6103C1309.43 57.3542 1273.09 81.5084 1290.75 126.436Z" fill="#D5ADFF"/>
</svg>
