<svg width="1988" height="1546" viewBox="0 0 1988 1546" fill="none" xmlns="http://www.w3.org/2000/svg">
<path d="M30.1781 1207.98V965.164H89.4938V1155.6H197.719V1207.98H30.1781ZM237.385 1207.98V1158.03H278.316V1015.11H237.385V965.164H378.563V1015.11H337.632V1158.03H378.563V1207.98H237.385ZM502.983 1207.98L405.858 965.164H467.601L514.083 1087.61C516.858 1094.78 519.17 1101.14 521.02 1106.69C523.101 1112.24 524.836 1117.44 526.223 1122.3C527.842 1126.92 529.345 1131.66 530.733 1136.52C532.12 1141.15 533.623 1146.46 535.242 1152.48H524.489C526.57 1144.38 528.536 1137.21 530.386 1130.97C532.236 1124.73 534.317 1118.25 536.63 1111.55C538.942 1104.84 541.833 1096.86 545.301 1087.61L590.048 965.164H650.405L552.933 1207.98H502.983ZM626.34 1207.98L722.425 965.164H772.721L868.112 1207.98H808.45L762.315 1084.84C760.696 1079.98 758.846 1074.78 756.765 1069.23C754.915 1063.68 753.065 1057.9 751.215 1051.88C749.365 1045.87 747.631 1040.09 746.012 1034.54C744.393 1028.99 743.006 1023.79 741.85 1018.93L751.909 1018.58C750.521 1024.36 749.018 1030.03 747.4 1035.58C745.781 1041.13 744.046 1046.68 742.196 1052.23C740.346 1057.78 738.381 1063.33 736.3 1068.88C734.45 1074.2 732.484 1079.75 730.403 1085.53L684.615 1207.98H626.34ZM672.128 1161.5L690.859 1116.4H801.859L820.59 1161.5H672.128ZM898.382 1207.98V965.164H1005.91C1022.8 965.164 1036.9 967.592 1048.23 972.448C1059.8 977.073 1068.58 983.895 1074.6 992.914C1080.61 1001.7 1083.61 1012.45 1083.61 1025.17C1083.61 1038.82 1080.15 1050.26 1073.21 1059.51C1066.5 1068.76 1056.79 1075.24 1044.07 1078.94L1043.72 1071.65C1054.13 1074.2 1063.26 1078.48 1071.13 1084.49C1079.22 1090.27 1085.46 1097.44 1089.86 1106C1094.25 1114.32 1096.45 1123.8 1096.45 1134.44C1096.45 1146.7 1094.25 1157.45 1089.86 1166.7C1085.7 1175.95 1079.68 1183.7 1071.82 1189.94C1064.19 1195.95 1055.05 1200.46 1044.42 1203.47C1034.01 1206.47 1022.45 1207.98 1009.73 1207.98H898.382ZM954.576 1158.37H1007.3C1017.01 1158.37 1024.53 1156.06 1029.85 1151.44C1035.4 1146.81 1038.17 1140.22 1038.17 1131.66C1038.17 1126.35 1036.79 1121.84 1034.01 1118.14C1031.47 1114.44 1027.77 1111.66 1022.91 1109.81C1018.05 1107.96 1012.27 1107.04 1005.57 1107.04H954.576V1158.37ZM954.576 1062.29H997.936C1003.95 1062.29 1009.04 1061.36 1013.2 1059.51C1017.36 1057.43 1020.48 1054.66 1022.56 1051.19C1024.88 1047.49 1026.03 1043.21 1026.03 1038.35C1026.03 1030.95 1023.49 1025.17 1018.4 1021.01C1013.31 1016.85 1005.68 1014.77 995.507 1014.77H954.576V1062.29ZM1141.6 1207.98V965.164H1200.92V1155.6H1309.14V1207.98H1141.6ZM1353.32 1207.98V965.164H1522.59V1015.81H1411.25V1157.33H1526.41V1207.98H1353.32ZM1381.41 1108.77V1060.21H1507.33V1108.77H1381.41ZM140.484 1523.45C122.216 1523.45 105.334 1520.44 89.8407 1514.43C74.5782 1508.18 61.2813 1499.51 49.95 1488.41C38.85 1477.08 30.1781 1463.78 23.9344 1448.52C17.9219 1433.03 14.9156 1416.15 14.9156 1397.88C14.9156 1379.84 18.0375 1363.19 24.2813 1347.93C30.7563 1332.66 39.775 1319.37 51.3375 1308.04C62.9 1296.7 76.4282 1287.92 91.9219 1281.67C107.647 1275.43 124.644 1272.31 142.913 1272.31C154.475 1272.31 165.806 1273.81 176.906 1276.82C188.006 1279.82 198.297 1284.33 207.778 1290.35C217.491 1296.13 225.816 1303.18 232.753 1311.5L196.331 1352.78C189.163 1344.92 181.069 1338.79 172.05 1334.4C163.263 1330 153.434 1327.81 142.566 1327.81C133.316 1327.81 124.528 1329.43 116.203 1332.66C108.109 1335.9 101.056 1340.64 95.0438 1346.89C89.0313 1353.13 84.2907 1360.53 80.8219 1369.09C77.3532 1377.64 75.6188 1387.35 75.6188 1398.22C75.6188 1408.86 77.2376 1418.57 80.4751 1427.36C83.9438 1435.92 88.8001 1443.32 95.0438 1449.56C101.519 1455.57 109.15 1460.2 117.938 1463.44C126.956 1466.67 136.9 1468.29 147.769 1468.29C154.938 1468.29 161.759 1467.37 168.234 1465.52C174.941 1463.44 181.184 1460.55 186.966 1456.85C192.747 1453.15 197.719 1448.98 201.881 1444.36L230.672 1490.15C225.122 1496.39 217.491 1502.05 207.778 1507.14C198.297 1512.23 187.66 1516.28 175.866 1519.28C164.303 1522.06 152.509 1523.45 140.484 1523.45ZM270.687 1519.98V1277.16H380.647C396.372 1277.16 410.478 1280.52 422.966 1287.22C435.453 1293.93 445.281 1303.18 452.45 1314.97C459.85 1326.54 463.55 1339.83 463.55 1354.86C463.55 1370.13 459.85 1383.77 452.45 1395.8C445.281 1407.82 435.453 1417.42 422.966 1424.59C410.478 1431.52 396.372 1434.99 380.647 1434.99H327.228V1519.98H270.687ZM405.622 1519.98L343.878 1410.02L404.581 1401.35L473.262 1520.32L405.622 1519.98ZM327.228 1388.86H375.444C381.456 1388.86 386.659 1387.59 391.053 1385.04C395.678 1382.27 399.147 1378.57 401.459 1373.94C404.003 1369.32 405.275 1364 405.275 1357.99C405.275 1351.74 403.772 1346.31 400.766 1341.68C397.991 1337.06 393.944 1333.47 388.625 1330.93C383.537 1328.15 377.409 1326.77 370.241 1326.77H327.228V1388.86ZM514.923 1519.98V1277.16H617.251C635.057 1277.16 651.36 1280.17 666.16 1286.18C680.96 1291.96 693.679 1300.29 704.317 1311.16C714.954 1321.8 723.163 1334.63 728.945 1349.66C734.726 1364.46 737.617 1380.76 737.617 1398.57C737.617 1416.61 734.726 1433.03 728.945 1447.83C723.163 1462.63 714.954 1475.46 704.317 1486.33C693.679 1496.97 680.96 1505.29 666.16 1511.3C651.592 1517.09 635.288 1519.98 617.251 1519.98H514.923ZM574.238 1479.05L566.607 1467.6H615.517C624.998 1467.6 633.554 1465.98 641.185 1462.74C648.817 1459.5 655.292 1454.88 660.61 1448.87C666.16 1442.62 670.323 1435.34 673.098 1427.01C676.104 1418.46 677.607 1408.98 677.607 1398.57C677.607 1388.16 676.104 1378.8 673.098 1370.47C670.323 1361.92 666.16 1354.63 660.61 1348.62C655.292 1342.38 648.817 1337.64 641.185 1334.4C633.554 1331.16 624.998 1329.54 615.517 1329.54H565.566L574.238 1318.79V1479.05Z" fill="white"/>
<rect x="26" y="97.5078" width="358.537" height="809.371" rx="80" fill="white"/>
<path d="M529.237 613.783C560.479 582.541 611.133 582.541 642.375 613.783L741.644 713.052C756.646 728.054 765.074 748.403 765.074 769.62V826.878C765.074 871.061 729.257 906.878 685.074 906.878H486.537C442.354 906.878 406.537 871.06 406.537 826.878V769.62C406.537 748.403 414.966 728.054 429.969 713.052L529.237 613.783ZM678.993 732.051C667.093 732.051 656.592 737.926 650.148 746.905C643.705 737.925 633.203 732.051 621.306 732.051C601.699 732.051 585.805 747.941 585.805 767.552C585.805 770.329 586.157 773.02 586.762 775.614C591.691 806.24 625.742 838.55 650.148 847.422C674.551 838.55 708.606 806.24 713.527 775.617C714.139 773.023 714.491 770.332 714.491 767.552C714.491 747.945 698.596 732.051 678.993 732.051Z" fill="white"/>
<path d="M939.457 96.7972L813.089 424.543C805.584 444.009 819.951 464.947 840.814 464.947C861.734 464.947 876.104 485.991 868.489 505.476L808.396 659.248C798.145 685.479 817.489 713.808 845.652 713.808H875.269C897.361 713.808 915.269 731.716 915.269 753.808V866.878C915.269 888.969 933.178 906.878 955.269 906.878H998.289C1020.38 906.878 1038.29 888.969 1038.29 866.878V753.808C1038.29 731.716 1056.2 713.808 1078.29 713.808L1107.91 713.808C1136.07 713.808 1155.41 685.479 1145.16 659.248L1085.07 505.477C1077.45 485.991 1091.82 464.947 1112.74 464.947C1133.61 464.947 1147.98 444.009 1140.47 424.543L1014.1 96.7972C1000.94 62.6507 952.623 62.6507 939.457 96.7972Z" fill="white"/>
<rect x="1188.48" y="417.762" width="358.537" height="489.117" rx="80" fill="white"/>
<path d="M1792.88 769.789C1748.14 655.971 1710.85 597.422 1620.68 518.739C1613.22 512.235 1602.32 511.561 1594.05 516.989L1586.98 521.629C1578.71 527.057 1574.99 537.329 1577.99 546.754C1614.31 660.788 1653.2 718.288 1739.82 804.614C1774.2 838.87 1810.54 814.716 1792.88 769.789Z" fill="white"/>
<path d="M1948.36 392.044C1827.42 373.883 1758.08 376.9 1644.85 415.652C1635.49 418.855 1629.45 427.961 1630.02 437.837L1630.5 446.279C1631.07 456.155 1638.1 464.512 1647.77 466.625C1764.68 492.189 1833.92 487.265 1952 455.407C1998.85 442.765 1996.1 399.213 1948.36 392.044Z" fill="white"/>
<path d="M1699.88 68.2486C1623.69 163.905 1591.62 225.471 1568.57 342.907C1566.66 352.613 1571.53 362.393 1580.37 366.841L1587.92 370.643C1596.76 375.091 1607.51 373.176 1614.17 365.863C1694.77 277.394 1725.13 214.969 1756.57 96.7856C1769.05 49.8873 1729.96 30.49 1699.88 68.2486Z" fill="white"/>
<path d="M1290.75 126.432C1335.49 240.25 1372.78 298.799 1462.95 377.482C1470.4 383.986 1481.31 384.659 1489.58 379.232L1496.65 374.591C1504.92 369.164 1508.64 358.892 1505.63 349.466C1469.32 235.433 1430.43 177.932 1343.81 91.6064C1309.43 57.3503 1273.09 81.5045 1290.75 126.432Z" fill="white"/>
</svg>
